<?xml version="1.0" encoding="utf-8"?>
<!-- Generator: Adobe Illustrator 28.4.1, SVG Export Plug-In . SVG Version: 6.00 Build 0)  -->
<svg version="1.1" id="Layer_1" xmlns="http://www.w3.org/2000/svg" xmlns:xlink="http://www.w3.org/1999/xlink" x="0px" y="0px"
	 viewBox="0 0 282.9 116" style="enable-background:new 0 0 282.9 116;" xml:space="preserve">
<style type="text/css">
	.st0{fill:#951414;}
	.st1{fill:#B72026;}
	.st2{fill:#DC2455;}
	.st3{fill:#D33928;}
	
		.st4{clip-path:url(#XMLID_00000011732192205446639700000002379629579638877117_);fill:none;stroke:#E31F2B;stroke-width:0.27;stroke-linecap:round;stroke-linejoin:round;stroke-miterlimit:10;}
	
		.st5{clip-path:url(#XMLID_00000011732192205446639700000002379629579638877117_);fill:none;stroke:#E31F2B;stroke-width:0.27;stroke-miterlimit:10;}
	.st6{clip-path:url(#XMLID_00000011732192205446639700000002379629579638877117_);}
	.st7{fill:#6D6E71;}
	.st8{font-family:'GothamRounded-Bold';}
	.st9{font-size:29.4123px;}
	
		.st10{clip-path:url(#XMLID_00000142858431429877241090000006215539010002301064_);fill:url(#XMLID_00000058551799633575222110000012080850309857563551_);}
	
		.st11{clip-path:url(#XMLID_00000031907293912959901370000014965770690873310114_);fill:url(#XMLID_00000057147862763347701010000012427370618326311838_);}
	
		.st12{clip-path:url(#XMLID_00000021800971602209582020000016870955253159033994_);fill:url(#XMLID_00000062193964317678457090000018439555404003333052_);}
	
		.st13{clip-path:url(#XMLID_00000183942927248580251120000003585259401912619936_);fill:url(#XMLID_00000013880222795556222530000003390005264997641618_);}
	
		.st14{clip-path:url(#XMLID_00000029039433815994852230000009841018707777513402_);fill:url(#XMLID_00000147924587684249332700000013948465572155658645_);}
	
		.st15{clip-path:url(#XMLID_00000150094576861512925000000013990361349928213667_);fill:url(#XMLID_00000163062223973241858060000013787661546740544939_);}
	
		.st16{clip-path:url(#XMLID_00000165216534139913313630000007624988668819488418_);fill:url(#XMLID_00000149339727159778982890000014792775664431666093_);}
	
		.st17{clip-path:url(#XMLID_00000019656302253805544550000010625178593983826817_);fill:url(#XMLID_00000031185592965606639790000007630300469042148797_);}
	
		.st18{clip-path:url(#XMLID_00000126294792260552135450000010470992832492787619_);fill:url(#XMLID_00000155138160106821421370000000996072026743088556_);}
	
		.st19{clip-path:url(#XMLID_00000005255645535189373420000000487908011323812778_);fill:url(#XMLID_00000116948394416047972760000001644971432102774971_);}
	
		.st20{clip-path:url(#XMLID_00000059989127316578010350000009420113938829043074_);fill:url(#XMLID_00000181054348418148246020000005000554296649623975_);}
	
		.st21{clip-path:url(#XMLID_00000059309834268076898710000000234006358329139105_);fill:url(#XMLID_00000147900618648403948240000003832306985745781390_);}
</style>
<polygon id="XMLID_40_" class="st0" points="27.7,71 51.2,111.4 51.1,57.1 "/>
<polygon id="XMLID_39_" class="st1" points="98.2,30.7 51.1,57.1 51.1,30.9 "/>
<polygon id="XMLID_38_" class="st2" points="51.1,30.9 51.1,57.1 23.6,41.5 "/>
<polygon id="XMLID_37_" class="st1" points="51.1,57.1 27.7,71 23.6,41.5 "/>
<polygon id="XMLID_36_" class="st3" points="85,53.5 51.1,81.5 51.1,57.1 "/>
<g>
	<defs>
		<rect id="XMLID_25_" x="3.8" y="5.7" width="274.9" height="106.2"/>
	</defs>
	<clipPath id="XMLID_00000038371379807063895130000017807386254835806382_">
		<use xlink:href="#XMLID_25_"  style="overflow:visible;"/>
	</clipPath>
	
		<path style="clip-path:url(#XMLID_00000038371379807063895130000017807386254835806382_);fill:none;stroke:#E31F2B;stroke-width:0.27;stroke-linecap:round;stroke-linejoin:round;stroke-miterlimit:10;" d="
		M4.2,30.7l47,80.7 M4.2,30.7l47,26.3l47-26.3l-47-24.6L4.2,30.7z M51.2,111.4l47-26.3V30.7L51.2,57V111.4z M51.2,111.4l-47-26.3
		V30.7l47,26.3V111.4z"/>
	
		<path style="clip-path:url(#XMLID_00000038371379807063895130000017807386254835806382_);fill:none;stroke:#E31F2B;stroke-width:0.27;stroke-miterlimit:10;" d="
		M51.2,57l47,28.1 M51.2,57l-47,28.1"/>
	
		<line id="XMLID_29_" style="clip-path:url(#XMLID_00000038371379807063895130000017807386254835806382_);fill:none;stroke:#E31F2B;stroke-width:0.27;stroke-linecap:round;stroke-linejoin:round;stroke-miterlimit:10;" x1="98.2" y1="30.7" x2="51.2" y2="111.4"/>
	
		<line id="XMLID_28_" style="clip-path:url(#XMLID_00000038371379807063895130000017807386254835806382_);fill:none;stroke:#E31F2B;stroke-width:0.27;stroke-miterlimit:10;" x1="51.2" y1="57" x2="51.2" y2="6.1"/>
	
		<line id="XMLID_27_" style="clip-path:url(#XMLID_00000038371379807063895130000017807386254835806382_);fill:none;stroke:#E31F2B;stroke-width:0.27;stroke-linecap:round;stroke-linejoin:round;stroke-miterlimit:10;" x1="4.2" y1="30.7" x2="98.2" y2="30.7"/>
	<g id="XMLID_26_" style="clip-path:url(#XMLID_00000038371379807063895130000017807386254835806382_);">
		<text transform="matrix(1 0 0 1.0687 105.55 53.2755)" class="st7 st8 st9">FRAMENET</text>
	</g>
</g>
<g>
	<defs>
		<path id="XMLID_23_" d="M212.1,56L212.1,56c-0.3,0-0.5,0.1-0.7,0.3c-0.2,0.2-0.3,0.4-0.3,0.7v18.4c0,0.2,0,0.4,0.1,0.5h6.5
			c0,0,0,0,0,0c0.5-0.3,1-0.8,1.4-1.4c0.4-0.6,0.6-1.2,0.8-1.9c0.2-0.7,0.3-1.4,0.3-2.1c0-1.5-0.4-2.9-1.1-4
			c-0.3-0.5-0.7-0.9-1.1-1.2c0.1-0.1,0.3-0.3,0.4-0.4c0.3-0.5,0.6-1,0.8-1.7c0.2-0.6,0.3-1.3,0.3-1.9c0-1.4-0.4-2.6-1.1-3.6
			c-0.8-1.1-1.7-1.7-2.8-1.7H212.1z"/>
	</defs>
	<clipPath id="XMLID_00000039818478396956399440000014106005192520651958_">
		<use xlink:href="#XMLID_23_"  style="overflow:visible;"/>
	</clipPath>
	
		<linearGradient id="XMLID_00000029742560234875771560000011505211991242483617_" gradientUnits="userSpaceOnUse" x1="-55.5835" y1="135.2081" x2="-52.3272" y2="135.2081" gradientTransform="matrix(2.8324 0 0 -2.8324 368.5916 448.9272)">
		<stop  offset="0" style="stop-color:#E33B45"/>
		<stop  offset="0.3589" style="stop-color:#DC2455"/>
		<stop  offset="1" style="stop-color:#941414"/>
	</linearGradient>
	
		<rect id="XMLID_24_" x="211.2" y="56" style="clip-path:url(#XMLID_00000039818478396956399440000014106005192520651958_);fill:url(#XMLID_00000029742560234875771560000011505211991242483617_);" width="9.2" height="19.9"/>
</g>
<g>
	<defs>
		<path id="XMLID_21_" d="M212.1,56L212.1,56c-0.3,0-0.5,0.1-0.7,0.3c-0.2,0.2-0.3,0.4-0.3,0.7v18.4c0,0.2,0,0.4,0.1,0.5h6.5
			c0,0,0,0,0,0c0.5-0.3,1-0.8,1.4-1.4c0.4-0.6,0.6-1.2,0.8-1.9c0.2-0.7,0.3-1.4,0.3-2.1c0-1.5-0.4-2.9-1.1-4
			c-0.3-0.5-0.7-0.9-1.1-1.2c0.1-0.1,0.3-0.3,0.4-0.4c0.3-0.5,0.6-1,0.8-1.7c0.2-0.6,0.3-1.3,0.3-1.9c0-1.4-0.4-2.6-1.1-3.6
			c-0.8-1.1-1.7-1.7-2.8-1.7H212.1z"/>
	</defs>
	<clipPath id="XMLID_00000181790028903073038900000015770440858596290971_">
		<use xlink:href="#XMLID_21_"  style="overflow:visible;"/>
	</clipPath>
	
		<linearGradient id="XMLID_00000069356523581867363540000002793835273091465639_" gradientUnits="userSpaceOnUse" x1="-156.9236" y1="122.9361" x2="-153.668" y2="122.9361" gradientTransform="matrix(31.2023 0 0 -31.2023 5086.187 3901.8545)">
		<stop  offset="0" style="stop-color:#E33B45"/>
		<stop  offset="0.3589" style="stop-color:#DC2455"/>
		<stop  offset="1" style="stop-color:#941414"/>
	</linearGradient>
	
		<rect id="XMLID_22_" x="211.2" y="56" style="clip-path:url(#XMLID_00000181790028903073038900000015770440858596290971_);fill:url(#XMLID_00000069356523581867363540000002793835273091465639_);" width="9.2" height="19.9"/>
</g>
<g>
	<defs>
		<path id="XMLID_19_" d="M225.1,56c-0.2,0-0.5,0.1-0.7,0.3c-0.2,0.2-0.3,0.4-0.3,0.7v18.4c0,0.2,0,0.4,0.1,0.5h1.6
			c0.1-0.1,0.1-0.3,0.1-0.5v-7.1h2.8l3.3,7.5c0,0,0,0.1,0.1,0.1h1.7c0,0,0-0.1,0.1-0.1c0-0.1,0.1-0.2,0.1-0.3c0-0.1,0-0.3-0.1-0.4
			l-3.2-7.2c0.5-0.3,1-0.8,1.5-1.5c0.4-0.6,0.6-1.2,0.8-1.9c0.2-0.7,0.3-1.4,0.3-2.2c0-0.7-0.1-1.4-0.3-2.2
			c-0.2-0.7-0.5-1.4-0.8-1.9c-0.4-0.6-0.9-1.1-1.4-1.5c-0.5-0.4-1.1-0.5-1.7-0.5H225.1z"/>
	</defs>
	<clipPath id="XMLID_00000086684681934385005420000000500758896488827022_">
		<use xlink:href="#XMLID_19_"  style="overflow:visible;"/>
	</clipPath>
	
		<linearGradient id="XMLID_00000093177318632511738920000014384304761664854699_" gradientUnits="userSpaceOnUse" x1="-60.2745" y1="134.2492" x2="-57.0193" y2="134.2492" gradientTransform="matrix(3.0414 0 0 -3.0414 407.469 474.279)">
		<stop  offset="0" style="stop-color:#E33B45"/>
		<stop  offset="0.3589" style="stop-color:#DC2455"/>
		<stop  offset="1" style="stop-color:#941414"/>
	</linearGradient>
	
		<rect id="XMLID_20_" x="224.2" y="56" style="clip-path:url(#XMLID_00000086684681934385005420000000500758896488827022_);fill:url(#XMLID_00000093177318632511738920000014384304761664854699_);" width="9.9" height="19.9"/>
</g>
<g>
	<defs>
		<path id="XMLID_17_" d="M225.1,56c-0.2,0-0.5,0.1-0.7,0.3c-0.2,0.2-0.3,0.4-0.3,0.7v18.4c0,0.2,0,0.4,0.1,0.5h1.6
			c0.1-0.1,0.1-0.3,0.1-0.5v-7.1h2.8l3.3,7.5c0,0,0,0.1,0.1,0.1h1.7c0,0,0-0.1,0.1-0.1c0-0.1,0.1-0.2,0.1-0.3c0-0.1,0-0.3-0.1-0.4
			l-3.2-7.2c0.5-0.3,1-0.8,1.5-1.5c0.4-0.6,0.6-1.2,0.8-1.9c0.2-0.7,0.3-1.4,0.3-2.2c0-0.7-0.1-1.4-0.3-2.2
			c-0.2-0.7-0.5-1.4-0.8-1.9c-0.4-0.6-0.9-1.1-1.4-1.5c-0.5-0.4-1.1-0.5-1.7-0.5H225.1z"/>
	</defs>
	<clipPath id="XMLID_00000182498598984746013090000013236179110989862546_">
		<use xlink:href="#XMLID_17_"  style="overflow:visible;"/>
	</clipPath>
	
		<linearGradient id="XMLID_00000093151753122316304090000010443007610135887038_" gradientUnits="userSpaceOnUse" x1="-156.9424" y1="122.9163" x2="-153.6868" y2="122.9163" gradientTransform="matrix(31.2047 0 0 -31.2047 5087.147 3901.54)">
		<stop  offset="0" style="stop-color:#E33B45"/>
		<stop  offset="0.3589" style="stop-color:#DC2455"/>
		<stop  offset="1" style="stop-color:#941414"/>
	</linearGradient>
	
		<rect id="XMLID_18_" x="224.2" y="56" style="clip-path:url(#XMLID_00000182498598984746013090000013236179110989862546_);fill:url(#XMLID_00000093151753122316304090000010443007610135887038_);" width="9.9" height="19.9"/>
</g>
<g>
	<defs>
		<path id="XMLID_15_" d="M241.2,55.8L241.2,55.8L241.2,55.8c-0.1,0-0.2,0-0.2,0c0,0-0.1,0-0.1,0h0v0c-0.1,0-0.1,0-0.2,0.1
			c0,0-0.1,0-0.1,0.1h0v0h0v0h0v0h0v0.1c-0.1,0-0.1,0.1-0.1,0.2v0v0c0,0,0,0.1,0,0.1l-3.8,18.9v0.2c0,0.1,0,0.2,0,0.2h1.7
			c0,0,0-0.1,0-0.1l0.7-3.5h4.4l0.7,3.5c0,0,0,0.1,0,0.1h1.7c0-0.1,0-0.2,0-0.3c0-0.1,0-0.1,0-0.2l-3.8-18.9c0-0.1,0-0.1,0-0.1v0v0
			c0,0,0-0.1-0.1-0.1c0,0-0.1-0.1-0.1-0.1l0-0.1v0h0v0h0v0h0c0,0-0.1-0.1-0.1-0.1c0,0-0.1,0-0.2-0.1v0h0c0,0-0.1,0-0.1,0
			C241.3,55.9,241.3,55.9,241.2,55.8L241.2,55.8z"/>
	</defs>
	<clipPath id="XMLID_00000025401772969709667440000006297499926238961830_">
		<use xlink:href="#XMLID_15_"  style="overflow:visible;"/>
	</clipPath>
	
		<linearGradient id="XMLID_00000026866101962443402350000002310126755738630535_" gradientUnits="userSpaceOnUse" x1="-51.8053" y1="134.8474" x2="-48.5492" y2="134.8474" gradientTransform="matrix(2.8896 0 0 -2.8896 386.1724 455.5294)">
		<stop  offset="0" style="stop-color:#E33B45"/>
		<stop  offset="0.3589" style="stop-color:#DC2455"/>
		<stop  offset="1" style="stop-color:#941414"/>
	</linearGradient>
	
		<rect id="XMLID_16_" x="236.5" y="55.8" style="clip-path:url(#XMLID_00000025401772969709667440000006297499926238961830_);fill:url(#XMLID_00000026866101962443402350000002310126755738630535_);" width="9.4" height="20.1"/>
</g>
<g>
	<defs>
		<path id="XMLID_13_" d="M241.2,55.8L241.2,55.8L241.2,55.8c-0.1,0-0.2,0-0.2,0c0,0-0.1,0-0.1,0h0v0c-0.1,0-0.1,0-0.2,0.1
			c0,0-0.1,0-0.1,0.1h0v0h0v0h0v0h0v0.1c-0.1,0-0.1,0.1-0.1,0.2v0v0c0,0,0,0.1,0,0.1l-3.8,18.9v0.2c0,0.1,0,0.2,0,0.2h1.7
			c0,0,0-0.1,0-0.1l0.7-3.5h4.4l0.7,3.5c0,0,0,0.1,0,0.1h1.7c0-0.1,0-0.2,0-0.3c0-0.1,0-0.1,0-0.2l-3.8-18.9c0-0.1,0-0.1,0-0.1v0v0
			c0,0,0-0.1-0.1-0.1c0,0-0.1-0.1-0.1-0.1l0-0.1v0h0v0h0v0h0c0,0-0.1-0.1-0.1-0.1c0,0-0.1,0-0.2-0.1v0h0c0,0-0.1,0-0.1,0
			C241.3,55.9,241.3,55.9,241.2,55.8L241.2,55.8z"/>
	</defs>
	<clipPath id="XMLID_00000122698208263908145590000017791827552939785089_">
		<use xlink:href="#XMLID_13_"  style="overflow:visible;"/>
	</clipPath>
	
		<linearGradient id="XMLID_00000151530018236279819290000003463399675741132711_" gradientUnits="userSpaceOnUse" x1="-156.9318" y1="122.9278" x2="-153.6762" y2="122.9278" gradientTransform="matrix(31.2007 0 0 -31.2007 5086.1943 3901.3064)">
		<stop  offset="0" style="stop-color:#E33B45"/>
		<stop  offset="0.3589" style="stop-color:#DC2455"/>
		<stop  offset="1" style="stop-color:#941414"/>
	</linearGradient>
	
		<rect id="XMLID_14_" x="236.5" y="55.8" style="clip-path:url(#XMLID_00000122698208263908145590000017791827552939785089_);fill:url(#XMLID_00000151530018236279819290000003463399675741132711_);" width="9.4" height="20.1"/>
</g>
<g>
	<defs>
		<path id="XMLID_11_" d="M250.1,57.2c-0.6,0.6-0.9,1.4-1.1,2.3c-0.1,0.3-0.1,0.5-0.1,0.8c0,0.2,0,0.4,0,0.4c0,1.3,0.5,2.5,1.3,3.5
			c0.4,0.4,0.8,0.8,1.2,1.1l1.3,1l1.4,1c0.4,0.3,0.8,0.7,1.2,1.1c0.3,0.4,0.6,0.9,0.8,1.4c0.2,0.5,0.3,1.1,0.3,1.8
			c0,0.7-0.1,1.2-0.4,1.6c-0.3,0.4-0.5,0.7-0.9,0.9c-0.3,0.2-0.7,0.3-1,0.4c-0.3,0-0.6,0.1-0.8,0.1c-0.3,0-0.7,0-1-0.1
			c-0.3-0.1-0.6-0.2-0.9-0.4c-0.3-0.2-0.5-0.5-0.7-0.9c-0.2-0.4-0.3-0.9-0.3-1.5c0-0.3-0.1-0.5-0.3-0.7c-0.2-0.2-0.4-0.3-0.7-0.3
			c-0.3,0-0.5,0.1-0.7,0.3c-0.2,0.2-0.3,0.4-0.3,0.7c0,1,0.2,1.8,0.5,2.4c0.3,0.6,0.7,1,1,1.3c0.3,0.2,0.5,0.4,0.8,0.5h4.8
			c0.3-0.2,0.7-0.4,0.9-0.6c0.5-0.4,0.8-0.9,1.1-1.5c0.3-0.6,0.4-1.3,0.4-2.2c0-1.7-0.5-3.1-1.5-4.3c-0.4-0.5-0.9-1-1.4-1.4
			c-0.5-0.4-1-0.8-1.5-1.1c-0.5-0.3-0.9-0.7-1.3-1c-0.4-0.3-0.7-0.6-1-0.9c-0.3-0.3-0.5-0.6-0.6-1c-0.1-0.4-0.2-0.8-0.2-1.2v-0.1
			c0-0.2,0-0.5,0.1-0.7c0-0.2,0.1-0.4,0.2-0.7c0.1-0.3,0.3-0.5,0.5-0.7c0.4-0.5,1-0.7,1.9-0.7c0.8,0,1.5,0.2,1.8,0.7
			c0.2,0.2,0.3,0.4,0.3,0.7c0.1,0.2,0.1,0.5,0.2,0.7c0,0.2,0,0.5,0,0.7c0,0.2,0,0.4,0,0.6c0,0.2,0.1,0.3,0.2,0.5
			c0.1,0.2,0.3,0.3,0.5,0.3c0.3,0,0.4,0,0.6-0.1c0.1-0.1,0.2-0.2,0.3-0.4c0.1-0.2,0.1-0.4,0.2-0.6c0,0,0-0.2,0-0.4
			c0-0.2,0-0.5,0-0.8c0-0.5-0.1-0.9-0.3-1.3c-0.2-0.4-0.4-0.8-0.7-1.1c-0.8-0.9-1.8-1.3-3.2-1.3C252,56,250.9,56.4,250.1,57.2"/>
	</defs>
	<clipPath id="XMLID_00000098211483867665012410000011471541622356680110_">
		<use xlink:href="#XMLID_11_"  style="overflow:visible;"/>
	</clipPath>
	
		<linearGradient id="XMLID_00000120517179506995132020000002720828596513230514_" gradientUnits="userSpaceOnUse" x1="-52.0826" y1="134.3943" x2="-48.8266" y2="134.3943" gradientTransform="matrix(2.9677 0 0 -2.9677 403.1815 464.7651)">
		<stop  offset="0" style="stop-color:#E33B45"/>
		<stop  offset="0.3589" style="stop-color:#DC2455"/>
		<stop  offset="1" style="stop-color:#941414"/>
	</linearGradient>
	
		<rect id="XMLID_12_" x="248.6" y="55.9" style="clip-path:url(#XMLID_00000098211483867665012410000011471541622356680110_);fill:url(#XMLID_00000120517179506995132020000002720828596513230514_);" width="9.7" height="20"/>
</g>
<g>
	<defs>
		<path id="XMLID_9_" d="M250.1,57.2c-0.6,0.6-0.9,1.4-1.1,2.3c-0.1,0.3-0.1,0.5-0.1,0.8c0,0.2,0,0.4,0,0.4c0,1.3,0.5,2.5,1.3,3.5
			c0.4,0.4,0.8,0.8,1.2,1.1l1.3,1l1.4,1c0.4,0.3,0.8,0.7,1.2,1.1c0.3,0.4,0.6,0.9,0.8,1.4c0.2,0.5,0.3,1.1,0.3,1.8
			c0,0.7-0.1,1.2-0.4,1.6c-0.3,0.4-0.5,0.7-0.9,0.9c-0.3,0.2-0.7,0.3-1,0.4c-0.3,0-0.6,0.1-0.8,0.1c-0.3,0-0.7,0-1-0.1
			c-0.3-0.1-0.6-0.2-0.9-0.4c-0.3-0.2-0.5-0.5-0.7-0.9c-0.2-0.4-0.3-0.9-0.3-1.5c0-0.3-0.1-0.5-0.3-0.7c-0.2-0.2-0.4-0.3-0.7-0.3
			c-0.3,0-0.5,0.1-0.7,0.3c-0.2,0.2-0.3,0.4-0.3,0.7c0,1,0.2,1.8,0.5,2.4c0.3,0.6,0.7,1,1,1.3c0.3,0.2,0.5,0.4,0.8,0.5h4.8
			c0.3-0.2,0.7-0.4,0.9-0.6c0.5-0.4,0.8-0.9,1.1-1.5c0.3-0.6,0.4-1.3,0.4-2.2c0-1.7-0.5-3.1-1.5-4.3c-0.4-0.5-0.9-1-1.4-1.4
			c-0.5-0.4-1-0.8-1.5-1.1c-0.5-0.3-0.9-0.7-1.3-1c-0.4-0.3-0.7-0.6-1-0.9c-0.3-0.3-0.5-0.6-0.6-1c-0.1-0.4-0.2-0.8-0.2-1.2v-0.1
			c0-0.2,0-0.5,0.1-0.7c0-0.2,0.1-0.4,0.2-0.7c0.1-0.3,0.3-0.5,0.5-0.7c0.4-0.5,1-0.7,1.9-0.7c0.8,0,1.5,0.2,1.8,0.7
			c0.2,0.2,0.3,0.4,0.3,0.7c0.1,0.2,0.1,0.5,0.2,0.7c0,0.2,0,0.5,0,0.7c0,0.2,0,0.4,0,0.6c0,0.2,0.1,0.3,0.2,0.5
			c0.1,0.2,0.3,0.3,0.5,0.3c0.3,0,0.4,0,0.6-0.1c0.1-0.1,0.2-0.2,0.3-0.4c0.1-0.2,0.1-0.4,0.2-0.6c0,0,0-0.2,0-0.4
			c0-0.2,0-0.5,0-0.8c0-0.5-0.1-0.9-0.3-1.3c-0.2-0.4-0.4-0.8-0.7-1.1c-0.8-0.9-1.8-1.3-3.2-1.3C252,56,250.9,56.4,250.1,57.2"/>
	</defs>
	<clipPath id="XMLID_00000035518568591386769590000013309051192015263155_">
		<use xlink:href="#XMLID_9_"  style="overflow:visible;"/>
	</clipPath>
	
		<linearGradient id="XMLID_00000070838413125851089810000002228136362497286034_" gradientUnits="userSpaceOnUse" x1="-156.9451" y1="122.9137" x2="-153.6895" y2="122.9137" gradientTransform="matrix(31.2038 0 0 -31.2038 5087.0894 3901.2986)">
		<stop  offset="0" style="stop-color:#E33B45"/>
		<stop  offset="0.3589" style="stop-color:#DC2455"/>
		<stop  offset="1" style="stop-color:#941414"/>
	</linearGradient>
	
		<rect id="XMLID_10_" x="248.6" y="55.9" style="clip-path:url(#XMLID_00000035518568591386769590000013309051192015263155_);fill:url(#XMLID_00000070838413125851089810000002228136362497286034_);" width="9.7" height="20"/>
</g>
<g>
	<defs>
		<path id="XMLID_7_" d="M262.3,56.3c-0.2,0.2-0.3,0.4-0.3,0.7v18.4c0,0.2,0,0.4,0.1,0.5h1.6c0.1-0.1,0.1-0.3,0.1-0.5V57
			c0-0.3-0.1-0.5-0.3-0.7c-0.2-0.2-0.4-0.3-0.7-0.3C262.7,56,262.5,56.1,262.3,56.3"/>
	</defs>
	<clipPath id="XMLID_00000063621265158759290070000006488156046422343604_">
		<use xlink:href="#XMLID_7_"  style="overflow:visible;"/>
	</clipPath>
	
		<linearGradient id="XMLID_00000024711779484420857420000007811815153428508288_" gradientUnits="userSpaceOnUse" x1="429.9318" y1="186.2072" x2="433.1862" y2="186.2072" gradientTransform="matrix(0.5852 0 0 -0.5852 10.4658 174.9421)">
		<stop  offset="0" style="stop-color:#E33B45"/>
		<stop  offset="0.3589" style="stop-color:#DC2455"/>
		<stop  offset="1" style="stop-color:#941414"/>
	</linearGradient>
	
		<rect id="XMLID_8_" x="262.1" y="56" style="clip-path:url(#XMLID_00000063621265158759290070000006488156046422343604_);fill:url(#XMLID_00000024711779484420857420000007811815153428508288_);" width="1.9" height="19.9"/>
</g>
<g>
	<defs>
		<path id="XMLID_5_" d="M262.3,56.3c-0.2,0.2-0.3,0.4-0.3,0.7v18.4c0,0.2,0,0.4,0.1,0.5h1.6c0.1-0.1,0.1-0.3,0.1-0.5V57
			c0-0.3-0.1-0.5-0.3-0.7c-0.2-0.2-0.4-0.3-0.7-0.3C262.7,56,262.5,56.1,262.3,56.3"/>
	</defs>
	<clipPath id="XMLID_00000075861068178902363760000011240559621652480958_">
		<use xlink:href="#XMLID_5_"  style="overflow:visible;"/>
	</clipPath>
	
		<linearGradient id="XMLID_00000070085794687403114960000001396562816593182339_" gradientUnits="userSpaceOnUse" x1="-156.9409" y1="122.9145" x2="-153.6852" y2="122.9145" gradientTransform="matrix(31.1947 0 0 -31.1947 5085.5503 3900.2554)">
		<stop  offset="0" style="stop-color:#E33B45"/>
		<stop  offset="0.3589" style="stop-color:#DC2455"/>
		<stop  offset="1" style="stop-color:#941414"/>
	</linearGradient>
	
		<rect id=“XMLID_6_” x=“262.1" y=“56” style=“clip-path:url(#XMLID_00000075861068178902363760000011240559621652480958_);fill:url(#XMLID_00000070085794687403114960000001396562816593182339_);” width=“1.9” height=“19.9"/>
</g>
<g>
	<defs>
		<path id=“XMLID_3_” d=“M269.8,56.3c-0.2,0.2-0.3,0.4-0.3,0.7v18.4c0,0.2,0,0.4,0.1,0.5h8.5v-1.4c-0.1-0.1-0.3-0.1-0.5-0.1h-6.3V57
			c0-0.3-0.1-0.5-0.3-0.7c-0.2-0.2-0.4-0.3-0.7-0.3C270.2,56,270,56.1,269.8,56.3"/>
	</defs>
	<clipPath id=“XMLID_00000039127286466647873590000014192574580041050035_“>
		<use xlink:href=“#XMLID_3_”  style=“overflow:visible;“/>
	</clipPath>
	
		<linearGradient id=“XMLID_00000151509788750500740280000011963239870290597288_” gradientUnits=“userSpaceOnUse” x1=“-40.7319” y1=“135.2882" x2=“-37.4762” y2=“135.2882" gradientTransform=“matrix(2.8201 0 0 -2.8201 384.4208 447.4998)“>
		<stop  offset=“0” style=“stop-color:#E33B45"/>
		<stop  offset=“0.3589” style=“stop-color:#DC2455"/>
		<stop  offset=“1” style=“stop-color:#941414"/>
	</linearGradient>
	
		<rect id=“XMLID_4_” x=“269.6" y=“56” style=“clip-path:url(#XMLID_00000039127286466647873590000014192574580041050035_);fill:url(#XMLID_00000151509788750500740280000011963239870290597288_);” width=“8.7” height=“19.9"/>
</g>
<g>
	<defs>
		<path id=“XMLID_1_” d=“M269.8,56.3c-0.2,0.2-0.3,0.4-0.3,0.7v18.4c0,0.2,0,0.4,0.1,0.5h8.5v-1.4c-0.1-0.1-0.3-0.1-0.5-0.1h-6.3V57
			c0-0.3-0.1-0.5-0.3-0.7c-0.2-0.2-0.4-0.3-0.7-0.3C270.2,56,270,56.1,269.8,56.3"/>
	</defs>
	<clipPath id=“XMLID_00000088131066722057797990000001190967672185823659_“>
		<use xlink:href=“#XMLID_1_”  style=“overflow:visible;“/>
	</clipPath>
	
		<linearGradient id=“XMLID_00000111167424353594170250000005916697313119316374_” gradientUnits=“userSpaceOnUse” x1=“-156.935” y1=“122.9236" x2=“-153.6793” y2=“122.9236" gradientTransform=“matrix(31.202 0 0 -31.202 5086.4937 3901.4346)“>
		<stop  offset=“0” style=“stop-color:#E33B45"/>
		<stop  offset=“0.3589” style=“stop-color:#DC2455"/>
		<stop  offset=“1” style=“stop-color:#941414"/>
	</linearGradient>
	
		<rect id=“XMLID_2_” x=“269.6" y=“56” style=“clip-path:url(#XMLID_00000088131066722057797990000001190967672185823659_);fill:url(#XMLID_00000111167424353594170250000005916697313119316374_);” width=“8.7” height=“19.9"/>
</g>
</svg>